<svg width="58" height="58" viewBox="0 0 58 58" fill="none" xmlns="http://www.w3.org/2000/svg">
<circle cx="29" cy="29" r="29" transform="rotate(-180 29 29)" fill="#DB4C44"/>
<path d="M29 27.3636L22.4545 20.8182C22.0027 20.3663 21.2701 20.3663 20.8182 20.8182C20.3663 21.2701 20.3663 22.0027 20.8182 22.4545L27.3636 29L20.8182 35.5455C20.3663 35.9973 20.3663 36.7299 20.8182 37.1818C21.2701 37.6337 22.0027 37.6337 22.4545 37.1818L29 30.6364L35.5455 37.1818C35.9973 37.6337 36.7299 37.6337 37.1818 37.1818C37.6337 36.7299 37.6337 35.9973 37.1818 35.5455L30.6364 29L37.1818 22.4545C37.6337 22.0027 37.6337 21.2701 37.1818 20.8182C36.7299 20.3663 35.9973 20.3663 35.5455 20.8182L29 27.3636Z" fill="#DB4C44" stroke="white" stroke-width="4" stroke-linecap="square"/>
</svg>