<svg width="93" height="38" viewBox="0 0 93 38" fill="none" xmlns="http://www.w3.org/2000/svg">
<rect width="93" height="38" rx="19" fill="#DB4C44"/>
<path d="M49.3333 8L36.8387 12.9987C36.5913 13.0975 36.3791 13.2682 36.2296 13.4888C36.0802 13.7093 36.0002 13.9696 36 14.236V29.3333C36 29.687 36.1405 30.0261 36.3905 30.2761C36.6406 30.5262 36.9797 30.6667 37.3333 30.6667H56C56.3536 30.6667 56.6928 30.5262 56.9428 30.2761C57.1929 30.0261 57.3333 29.687 57.3333 29.3333V14.6667C57.3333 14.313 57.1929 13.9739 56.9428 13.7239C56.6928 13.4738 56.3536 13.3333 56 13.3333H36.6667" stroke="white" stroke-width="3" stroke-linecap="round" stroke-linejoin="round"/>
<path d="M36 20H57.3333" stroke="white" stroke-width="3" stroke-linecap="round" stroke-linejoin="round"/>
<path d="M40 19.9999V17.3333" stroke="white" stroke-width="3" stroke-linecap="round" stroke-linejoin="round"/>
<path d="M53.3334 25.3333V25.3466" stroke="white" stroke-width="3" stroke-linecap="round" stroke-linejoin="round"/>
<path d="M48 25.3333V25.3466" stroke="white" stroke-width="3" stroke-linecap="round" stroke-linejoin="round"/>
</svg>