<svg width="66" height="66" viewBox="0 0 66 66" fill="none" xmlns="http://www.w3.org/2000/svg">
<g filter="url(#filter0_d_3_642)">
<circle cx="33" cy="29" r="29" transform="rotate(-180 33 29)" fill="#DB4C44"/>
</g>
<path d="M33 27.3636L26.4545 20.8182C26.0027 20.3663 25.2701 20.3663 24.8182 20.8182C24.3663 21.2701 24.3663 22.0027 24.8182 22.4545L31.3636 29L24.8182 35.5455C24.3663 35.9973 24.3663 36.7299 24.8182 37.1818C25.2701 37.6337 26.0027 37.6337 26.4545 37.1818L33 30.6364L39.5455 37.1818C39.9973 37.6337 40.7299 37.6337 41.1818 37.1818C41.6337 36.7299 41.6337 35.9973 41.1818 35.5455L34.6364 29L41.1818 22.4545C41.6337 22.0027 41.6337 21.2701 41.1818 20.8182C40.7299 20.3663 39.9973 20.3663 39.5455 20.8182L33 27.3636Z" fill="white" stroke="white" stroke-width="4" stroke-linecap="square"/>
<defs>
<filter id="filter0_d_3_642" x="0" y="0" width="66" height="66" filterUnits="userSpaceOnUse" color-interpolation-filters="sRGB">
<feFlood flood-opacity="0" result="BackgroundImageFix"/>
<feColorMatrix in="SourceAlpha" type="matrix" values="0 0 0 0 0 0 0 0 0 0 0 0 0 0 0 0 0 0 127 0" result="hardAlpha"/>
<feOffset dy="4"/>
<feGaussianBlur stdDeviation="2"/>
<feComposite in2="hardAlpha" operator="out"/>
<feColorMatrix type="matrix" values="0 0 0 0 0 0 0 0 0 0 0 0 0 0 0 0 0 0 0.25 0"/>
<feBlend mode="normal" in2="BackgroundImageFix" result="effect1_dropShadow_3_642"/>
<feBlend mode="normal" in="SourceGraphic" in2="effect1_dropShadow_3_642" result="shape"/>
</filter>
</defs>
</svg>