<svg width="107" height="104" viewBox="0 0 107 104" fill="none" xmlns="http://www.w3.org/2000/svg">
<path d="M83.9531 99.073H22.539C12.3615 99.073 4.10597 90.7384 4.10597 80.4634V44.9197C4.10597 34.6447 12.3615 26.3101 22.539 26.3101H83.9531C94.1305 26.3101 102.386 34.6447 102.386 44.9197V80.4634C102.386 90.7384 94.1305 99.073 83.9531 99.073Z" stroke="#DB4C44" stroke-width="8" stroke-miterlimit="10" stroke-linecap="round"/>
<path d="M4.10597 50.5643H102.386" stroke="#DB4C44" stroke-width="8" stroke-miterlimit="10" stroke-linecap="round"/>
<path d="M63.074 4.26062L19.394 26.31" stroke="#DB4C44" stroke-width="8" stroke-miterlimit="10" stroke-linecap="round"/>
<path d="M71.81 81.4335C74.2224 81.4335 76.178 79.4592 76.178 77.0236C76.178 74.5881 74.2224 72.6138 71.81 72.6138C69.3976 72.6138 67.442 74.5881 67.442 77.0236C67.442 79.4592 69.3976 81.4335 71.81 81.4335Z" fill="#ABA99C"/>
<path d="M84.914 81.4335C87.3264 81.4335 89.2821 79.4592 89.2821 77.0236C89.2821 74.5881 87.3264 72.6138 84.914 72.6138C82.5017 72.6138 80.546 74.5881 80.546 77.0236C80.546 79.4592 82.5017 81.4335 84.914 81.4335Z" fill="#ABA99C"/>
</svg>