<svg width="112" height="105" viewBox="0 0 112 105" fill="none" xmlns="http://www.w3.org/2000/svg">
<path d="M66.4792 9.96765H39.2665C31.9719 9.96765 26.0751 15.921 26.0751 23.2855C26.0751 24.4541 25.136 25.4022 23.9785 25.4022H22.6681C12.4906 25.4022 4.23511 33.7369 4.23511 44.0119V81.7605C4.23511 92.0355 12.4906 100.37 22.6681 100.37H84.0822C94.2597 100.37 102.515 92.0355 102.515 81.7605V41.8952" stroke="#DB4C44" stroke-width="8" stroke-miterlimit="10" stroke-linecap="round"/>
<path d="M69.1436 65.3557C67.1125 72.8304 60.3421 78.3207 52.2831 78.3207C42.6298 78.3207 34.8111 70.4271 34.8111 60.6812C34.8111 52.4568 40.3803 45.5554 47.9151 43.593" stroke="#DB4C44" stroke-width="8" stroke-miterlimit="10" stroke-linecap="round"/>
<path d="M75.4117 48.3997L65.1032 49.5463C63.6618 49.7006 62.4606 48.4879 62.6134 47.0327L63.7491 36.6254C63.8146 36.1182 64.033 35.6331 64.4043 35.2583L94.6964 4.71989C95.57 3.83792 97.0115 3.83792 97.8851 4.71989L107.058 13.9806C107.931 14.8626 107.931 16.3179 107.058 17.1998L76.7658 47.7603C76.3945 48.1131 75.9358 48.3556 75.4117 48.3997Z" stroke="#ABA99C" stroke-width="8" stroke-miterlimit="10" stroke-linecap="round"/>
</svg>