<svg width="106" height="104" viewBox="0 0 106 104" fill="none" xmlns="http://www.w3.org/2000/svg">
<path d="M47.8376 99.2314H23.3331C13.1557 99.2314 4.90015 90.8968 4.90015 80.6218V23.0288C4.90015 12.7537 13.1557 4.41907 23.3331 4.41907H58.5392C68.7167 4.41907 76.9722 12.7537 76.9722 23.0288V55.1988" stroke="#DB4C44" stroke-width="8" stroke-miterlimit="10" stroke-linecap="round"/>
<path d="M18.0042 35.2882H59.5002" stroke="#DB4C44" stroke-width="8" stroke-miterlimit="10" stroke-linecap="round"/>
<path d="M18.0042 52.9276H46.3962" stroke="#DB4C44" stroke-width="8" stroke-miterlimit="10" stroke-linecap="round"/>
<path d="M18.0042 70.5673H46.3962" stroke="#DB4C44" stroke-width="8" stroke-miterlimit="10" stroke-linecap="round"/>
<path d="M69.5247 86.9498L59.2163 88.0964C57.7748 88.2507 56.5737 87.038 56.7265 85.5827L57.8622 75.1754C57.9277 74.6683 58.1461 74.1832 58.5174 73.8084L88.7877 43.2479C89.6613 42.3659 91.1027 42.3659 91.9763 43.2479L101.149 52.5086C102.023 53.3906 102.023 54.8459 101.149 55.7279L70.8788 86.2883C70.5075 86.6632 70.0489 86.9057 69.5247 86.9498Z" stroke="#ABA99C" stroke-width="8" stroke-miterlimit="10" stroke-linecap="round"/>
</svg>
