<svg width="162" height="82" viewBox="0 0 162 82" fill="none" xmlns="http://www.w3.org/2000/svg">
<path d="M84.573 77.2965H23.1589C12.9815 77.2965 4.72594 68.9618 4.72594 58.6868V23.1432C4.72594 12.8682 12.9815 4.53351 23.1589 4.53351H84.573C94.7505 4.53351 103.006 12.8682 103.006 23.1432V58.6868C103.006 68.9618 94.7505 77.2965 84.573 77.2965Z" stroke="#DB4C44" stroke-width="8" stroke-miterlimit="10" stroke-linecap="round"/>
<path d="M103.552 53.3288L118.403 61.9942C121.264 63.6699 124.846 61.5752 124.846 58.2458V23.6282C124.846 20.2988 121.264 18.2041 118.403 19.8798L104.295 28.1043" stroke="#DB4C44" stroke-width="8" stroke-miterlimit="10" stroke-linecap="round"/>
<path d="M137.95 40.9149H157.606" stroke="#ABA99C" stroke-width="8" stroke-miterlimit="10" stroke-linecap="round"/>
<path d="M137.95 26.5829L157.606 19.9681" stroke="#ABA99C" stroke-width="8" stroke-miterlimit="10" stroke-linecap="round"/>
<path d="M137.95 55.2471L157.606 61.8619" stroke="#ABA99C" stroke-width="8" stroke-miterlimit="10" stroke-linecap="round"/>
</svg>