<svg width="57" height="57" viewBox="0 0 57 57" fill="none" xmlns="http://www.w3.org/2000/svg">
<path fill-rule="evenodd" clip-rule="evenodd" d="M0 0H19.95V5.7H5.7V19.95H0V0ZM51.3 5.7H37.05V0H57V19.95H51.3V5.7ZM5.7 51.3V37.05H0V57H19.95V51.3H5.7ZM51.3 51.3V37.05H57V57H37.05V51.3H51.3Z" fill="#DB4C44"/>
<path d="M23.644 34.0153L18.2035 39.4558L14.5 35.75V44.75H23.5L19.7943 41.0465L25.2347 35.606L23.644 34.0153ZM34.75 15.5L38.4558 19.2058L33.0153 24.6462L34.606 26.237L40.0465 20.7965L43.75 24.5V15.5H34.75Z" fill="white"/>
</svg>
